# xmcd
#
# Track frame offsets:
#	150
#	15815
#	32997
#	53162
#	70187
#	89517
#	104212
#	118712
#	134247
#	151452
#	167725
#	189875
#	207255
#	224662
#	243357
#
# Disc length: 3496 seconds
#
# Revision: 1
# Processed by: cddbd v1.5.2PL0 Copyright (c) Steve Scherf et al.
# Submitted via: audiograbber 1.83.01
#
DISCID=dd0da60f
DTITLE=Various Artist - Tähti CD 5
DYEAR=1996
DGENRE=Pop
TTITLE0=Look Twice - Do U Wanna Boogie
TTITLE1=Naked Music NYC - I'll Take You To Love (Tee's Radio Edit)
TTITLE2=Real System - There Is No More Love (Radio Edit)
TTITLE3=Minna - Mitä Sä Teet?
TTITLE4=Bubbles - Et Saa
TTITLE5=Nylon Beat - Pieni Taivas
TTITLE6=Ann-Louise - Tell Me Why
TTITLE7=Nicole - Runnin' Away (E-Smoove Radio Edit)
TTITLE8=Jazmine - Love Takes Me Up
TTITLE9=Leila K - Electric
TTITLE10=Neuroactive - Neuron (Denatured Mix)
TTITLE11=Soup De Loop - Love The Way (Original Mix)
TTITLE12=Soittorasia - Tanssin Olen Tulessa
TTITLE13=Kikka Laitinen - Sydän Valvoo
TTITLE14=Poptones - Kim
EXTD=TR.
EXTT0=
EXTT1=
EXTT2=
EXTT3=
EXTT4=
EXTT5=
EXTT6=
EXTT7=
EXTT8=
EXTT9=
EXTT10=
EXTT11=
EXTT12=
EXTT13=
EXTT14=
PLAYORDER=
